<?xml version="1.0" encoding="UTF-8" standalone="no"?>
<!DOCTYPE svg PUBLIC "-//W3C//DTD SVG 1.1//EN"
 "http://www.w3.org/Graphics/SVG/1.1/DTD/svg11.dtd">
<!-- Generated by graphviz version 2.40.1 (20161225.0304)
 -->
<!-- Title: %3 Pages: 1 -->
<svg width="823pt" height="128pt"
 viewBox="0.00 0.00 822.68 128.00" xmlns="http://www.w3.org/2000/svg" xmlns:xlink="http://www.w3.org/1999/xlink">
<g id="graph0" class="graph" transform="scale(1 1) rotate(0) translate(4 124)">
<title>%3</title>
<polygon fill="#ffffff" stroke="transparent" points="-4,4 -4,-124 818.6836,-124 818.6836,4 -4,4"/>
<!-- 4350926352 -->
<g id="node1" class="node">
<title>4350926352</title>
<polygon fill="none" stroke="#000000" points="234.9795,-83.5 234.9795,-119.5 345.5107,-119.5 345.5107,-83.5 234.9795,-83.5"/>
<text text-anchor="middle" x="246.0864" y="-97.3" font-family="Times,serif" font-size="14.00" fill="#000000">c</text>
<polyline fill="none" stroke="#000000" points="257.1934,-83.5 257.1934,-119.5 "/>
<text text-anchor="middle" x="301.3521" y="-97.3" font-family="Times,serif" font-size="14.00" fill="#000000">data 10.0000</text>
</g>
<!-- 4350875472+ -->
<g id="node7" class="node">
<title>4350875472+</title>
<polygon fill="none" stroke="#000000" points="435.5107,-91.5 381.5107,-91.5 381.5107,-55.5 435.5107,-55.5 435.5107,-91.5"/>
<text text-anchor="middle" x="408.5107" y="-69.3" font-family="Times,serif" font-size="14.00" fill="#000000">+</text>
</g>
<!-- 4350926352&#45;&gt;4350875472+ -->
<g id="edge6" class="edge">
<title>4350926352&#45;&gt;4350875472+</title>
<path fill="none" stroke="#000000" d="M345.569,-88.4018C354.2766,-86.3402 363.0947,-84.2525 371.264,-82.3184"/>
<polygon fill="#000000" stroke="#000000" points="372.283,-85.6739 381.2077,-79.9641 370.6703,-78.8622 372.283,-85.6739"/>
</g>
<!-- 4350880848 -->
<g id="node2" class="node">
<title>4350880848</title>
<polygon fill="none" stroke="#000000" points="471.5107,-.5 471.5107,-36.5 578.1523,-36.5 578.1523,-.5 471.5107,-.5"/>
<text text-anchor="middle" x="481.8418" y="-14.3" font-family="Times,serif" font-size="14.00" fill="#000000">f</text>
<polyline fill="none" stroke="#000000" points="492.1729,-.5 492.1729,-36.5 "/>
<text text-anchor="middle" x="535.1626" y="-14.3" font-family="Times,serif" font-size="14.00" fill="#000000">data &#45;2.0000</text>
</g>
<!-- 4350875536* -->
<g id="node10" class="node">
<title>4350875536*</title>
<polygon fill="none" stroke="#000000" points="668.1523,-63.5 614.1523,-63.5 614.1523,-27.5 668.1523,-27.5 668.1523,-63.5"/>
<text text-anchor="middle" x="641.1523" y="-41.3" font-family="Times,serif" font-size="14.00" fill="#000000">*</text>
</g>
<!-- 4350880848&#45;&gt;4350875536* -->
<g id="edge8" class="edge">
<title>4350880848&#45;&gt;4350875536*</title>
<path fill="none" stroke="#000000" d="M578.2257,-30.8937C586.9604,-32.9211 595.8394,-34.9821 604.0676,-36.892"/>
<polygon fill="#000000" stroke="#000000" points="603.5496,-40.3648 614.0821,-39.2165 605.1324,-33.546 603.5496,-40.3648"/>
</g>
<!-- 4743943760 -->
<g id="node3" class="node">
<title>4743943760</title>
<polygon fill="none" stroke="#000000" points="0,-56.5 0,-92.5 108.9795,-92.5 108.9795,-56.5 0,-56.5"/>
<text text-anchor="middle" x="11.5" y="-70.3" font-family="Times,serif" font-size="14.00" fill="#000000">b</text>
<polyline fill="none" stroke="#000000" points="23,-56.5 23,-92.5 "/>
<text text-anchor="middle" x="65.9897" y="-70.3" font-family="Times,serif" font-size="14.00" fill="#000000">data &#45;3.0000</text>
</g>
<!-- 4350927568* -->
<g id="node5" class="node">
<title>4350927568*</title>
<polygon fill="none" stroke="#000000" points="198.9795,-64.5 144.9795,-64.5 144.9795,-28.5 198.9795,-28.5 198.9795,-64.5"/>
<text text-anchor="middle" x="171.9795" y="-42.3" font-family="Times,serif" font-size="14.00" fill="#000000">*</text>
</g>
<!-- 4743943760&#45;&gt;4350927568* -->
<g id="edge7" class="edge">
<title>4743943760&#45;&gt;4350927568*</title>
<path fill="none" stroke="#000000" d="M109.1071,-61.4837C117.7869,-59.4151 126.5875,-57.3178 134.7458,-55.3735"/>
<polygon fill="#000000" stroke="#000000" points="135.7627,-58.7292 144.6788,-53.0063 134.1398,-51.9199 135.7627,-58.7292"/>
</g>
<!-- 4350927568 -->
<g id="node4" class="node">
<title>4350927568</title>
<polygon fill="none" stroke="#000000" points="236.1484,-28.5 236.1484,-64.5 344.3418,-64.5 344.3418,-28.5 236.1484,-28.5"/>
<text text-anchor="middle" x="247.2554" y="-42.3" font-family="Times,serif" font-size="14.00" fill="#000000">e</text>
<polyline fill="none" stroke="#000000" points="258.3623,-28.5 258.3623,-64.5 "/>
<text text-anchor="middle" x="301.3521" y="-42.3" font-family="Times,serif" font-size="14.00" fill="#000000">data &#45;6.0000</text>
</g>
<!-- 4350927568&#45;&gt;4350875472+ -->
<g id="edge9" class="edge">
<title>4350927568&#45;&gt;4350875472+</title>
<path fill="none" stroke="#000000" d="M344.532,-58.8937C353.5977,-60.9634 362.8164,-63.068 371.328,-65.0112"/>
<polygon fill="#000000" stroke="#000000" points="370.7735,-68.4746 381.3017,-67.2882 372.3316,-61.6502 370.7735,-68.4746"/>
</g>
<!-- 4350927568*&#45;&gt;4350927568 -->
<g id="edge1" class="edge">
<title>4350927568*&#45;&gt;4350927568</title>
<path fill="none" stroke="#000000" d="M199.112,-46.5C207.125,-46.5 216.2598,-46.5 225.5795,-46.5"/>
<polygon fill="#000000" stroke="#000000" points="225.7207,-50.0001 235.7207,-46.5 225.7206,-43.0001 225.7207,-50.0001"/>
</g>
<!-- 4350875472 -->
<g id="node6" class="node">
<title>4350875472</title>
<polygon fill="none" stroke="#000000" points="472.6729,-55.5 472.6729,-91.5 576.9902,-91.5 576.9902,-55.5 472.6729,-55.5"/>
<text text-anchor="middle" x="484.1729" y="-69.3" font-family="Times,serif" font-size="14.00" fill="#000000">d</text>
<polyline fill="none" stroke="#000000" points="495.6729,-55.5 495.6729,-91.5 "/>
<text text-anchor="middle" x="536.3315" y="-69.3" font-family="Times,serif" font-size="14.00" fill="#000000">data 4.0000</text>
</g>
<!-- 4350875472&#45;&gt;4350875536* -->
<g id="edge4" class="edge">
<title>4350875472&#45;&gt;4350875536*</title>
<path fill="none" stroke="#000000" d="M577.2071,-60.8925C586.21,-58.7254 595.3996,-56.5133 603.9016,-54.4668"/>
<polygon fill="#000000" stroke="#000000" points="604.9691,-57.8099 613.8722,-52.0667 603.3308,-51.0042 604.9691,-57.8099"/>
</g>
<!-- 4350875472+&#45;&gt;4350875472 -->
<g id="edge2" class="edge">
<title>4350875472+&#45;&gt;4350875472</title>
<path fill="none" stroke="#000000" d="M435.7828,-73.5C443.8702,-73.5 453.0802,-73.5 462.437,-73.5"/>
<polygon fill="#000000" stroke="#000000" points="462.6018,-77.0001 472.6017,-73.5 462.6017,-70.0001 462.6018,-77.0001"/>
</g>
<!-- 4724388752 -->
<g id="node8" class="node">
<title>4724388752</title>
<polygon fill="none" stroke="#000000" points="2.7241,-1.5 2.7241,-37.5 106.2554,-37.5 106.2554,-1.5 2.7241,-1.5"/>
<text text-anchor="middle" x="13.8311" y="-15.3" font-family="Times,serif" font-size="14.00" fill="#000000">a</text>
<polyline fill="none" stroke="#000000" points="24.938,-1.5 24.938,-37.5 "/>
<text text-anchor="middle" x="65.5967" y="-15.3" font-family="Times,serif" font-size="14.00" fill="#000000">data 2.0000</text>
</g>
<!-- 4724388752&#45;&gt;4350927568* -->
<g id="edge5" class="edge">
<title>4724388752&#45;&gt;4350927568*</title>
<path fill="none" stroke="#000000" d="M106.3645,-31.4212C116.0118,-33.6382 125.9097,-35.9128 134.9982,-38.0014"/>
<polygon fill="#000000" stroke="#000000" points="134.3291,-41.4388 144.859,-40.2675 135.8969,-34.6167 134.3291,-41.4388"/>
</g>
<!-- 4350875536 -->
<g id="node9" class="node">
<title>4350875536</title>
<polygon fill="none" stroke="#000000" points="704.1523,-27.5 704.1523,-63.5 814.6836,-63.5 814.6836,-27.5 704.1523,-27.5"/>
<text text-anchor="middle" x="716.4282" y="-41.3" font-family="Times,serif" font-size="14.00" fill="#000000">L</text>
<polyline fill="none" stroke="#000000" points="728.7041,-27.5 728.7041,-63.5 "/>
<text text-anchor="middle" x="771.6938" y="-41.3" font-family="Times,serif" font-size="14.00" fill="#000000">data &#45;8.0000</text>
</g>
<!-- 4350875536*&#45;&gt;4350875536 -->
<g id="edge3" class="edge">
<title>4350875536*&#45;&gt;4350875536</title>
<path fill="none" stroke="#000000" d="M668.2849,-45.5C676.0144,-45.5 684.7878,-45.5 693.7641,-45.5"/>
<polygon fill="#000000" stroke="#000000" points="693.9401,-49.0001 703.9401,-45.5 693.9401,-42.0001 693.9401,-49.0001"/>
</g>
</g>
</svg>
