<?xml version="1.0" encoding="UTF-8" standalone="no"?>
<!DOCTYPE svg PUBLIC "-//W3C//DTD SVG 1.1//EN"
 "http://www.w3.org/Graphics/SVG/1.1/DTD/svg11.dtd">
<!-- Generated by graphviz version 2.40.1 (20161225.0304)
 -->
<!-- Title: %3 Pages: 1 -->
<svg width="2962pt" height="236pt"
 viewBox="0.00 0.00 2961.58 236.00" xmlns="http://www.w3.org/2000/svg" xmlns:xlink="http://www.w3.org/1999/xlink">
<g id="graph0" class="graph" transform="scale(1 1) rotate(0) translate(4 232)">
<title>%3</title>
<polygon fill="#ffffff" stroke="transparent" points="-4,4 -4,-232 2957.5811,-232 2957.5811,4 -4,4"/>
<!-- 4415108624 -->
<g id="node1" class="node">
<title>4415108624</title>
<polygon fill="none" stroke="#000000" points="1080.6533,-164.5 1080.6533,-200.5 1264.3467,-200.5 1264.3467,-164.5 1080.6533,-164.5"/>
<text text-anchor="middle" x="1090.4033" y="-178.3" font-family="Times,serif" font-size="14.00" fill="#000000"> </text>
<polyline fill="none" stroke="#000000" points="1100.1533,-164.5 1100.1533,-200.5 "/>
<text text-anchor="middle" x="1140.812" y="-178.3" font-family="Times,serif" font-size="14.00" fill="#000000">data 2.0000</text>
<polyline fill="none" stroke="#000000" points="1181.4707,-164.5 1181.4707,-200.5 "/>
<text text-anchor="middle" x="1222.9087" y="-178.3" font-family="Times,serif" font-size="14.00" fill="#000000">grad 0.2203</text>
</g>
<!-- 4415108752* -->
<g id="node7" class="node">
<title>4415108752*</title>
<ellipse fill="none" stroke="#000000" cx="1329.0967" cy="-154.5" rx="27" ry="18"/>
<text text-anchor="middle" x="1329.0967" y="-150.3" font-family="Times,serif" font-size="14.00" fill="#000000">*</text>
</g>
<!-- 4415108624&#45;&gt;4415108752* -->
<g id="edge26" class="edge">
<title>4415108624&#45;&gt;4415108752*</title>
<path fill="none" stroke="#000000" d="M1264.4987,-166.0503C1274.4383,-164.2731 1284.0738,-162.5502 1292.7374,-161.0012"/>
<polygon fill="#000000" stroke="#000000" points="1293.5505,-164.4114 1302.7783,-159.2058 1292.3184,-157.5206 1293.5505,-164.4114"/>
</g>
<!-- 4415108112 -->
<g id="node2" class="node">
<title>4415108112</title>
<polygon fill="none" stroke="#000000" points="2.3311,-55.5 2.3311,-91.5 199.6348,-91.5 199.6348,-55.5 2.3311,-55.5"/>
<text text-anchor="middle" x="18.8862" y="-69.3" font-family="Times,serif" font-size="14.00" fill="#000000">w2</text>
<polyline fill="none" stroke="#000000" points="35.4414,-55.5 35.4414,-91.5 "/>
<text text-anchor="middle" x="76.1001" y="-69.3" font-family="Times,serif" font-size="14.00" fill="#000000">data 1.0000</text>
<polyline fill="none" stroke="#000000" points="116.7588,-55.5 116.7588,-91.5 "/>
<text text-anchor="middle" x="158.1968" y="-69.3" font-family="Times,serif" font-size="14.00" fill="#000000">grad 0.0000</text>
</g>
<!-- 4415108304* -->
<g id="node15" class="node">
<title>4415108304*</title>
<ellipse fill="none" stroke="#000000" cx="264.9658" cy="-73.5" rx="27" ry="18"/>
<text text-anchor="middle" x="264.9658" y="-69.3" font-family="Times,serif" font-size="14.00" fill="#000000">*</text>
</g>
<!-- 4415108112&#45;&gt;4415108304* -->
<g id="edge14" class="edge">
<title>4415108112&#45;&gt;4415108304*</title>
<path fill="none" stroke="#000000" d="M199.6843,-73.5C209.6183,-73.5 219.2105,-73.5 227.8437,-73.5"/>
<polygon fill="#000000" stroke="#000000" points="227.8572,-77.0001 237.8572,-73.5 227.8572,-70.0001 227.8572,-77.0001"/>
</g>
<!-- 4415108176 -->
<g id="node3" class="node">
<title>4415108176</title>
<polygon fill="none" stroke="#000000" points="721.3208,-137.5 721.3208,-173.5 908.5142,-173.5 908.5142,-137.5 721.3208,-137.5"/>
<text text-anchor="middle" x="732.8208" y="-151.3" font-family="Times,serif" font-size="14.00" fill="#000000">b</text>
<polyline fill="none" stroke="#000000" points="744.3208,-137.5 744.3208,-173.5 "/>
<text text-anchor="middle" x="784.9795" y="-151.3" font-family="Times,serif" font-size="14.00" fill="#000000">data 6.8814</text>
<polyline fill="none" stroke="#000000" points="825.6382,-137.5 825.6382,-173.5 "/>
<text text-anchor="middle" x="867.0762" y="-151.3" font-family="Times,serif" font-size="14.00" fill="#000000">grad 0.5000</text>
</g>
<!-- 4415108560+ -->
<g id="node28" class="node">
<title>4415108560+</title>
<ellipse fill="none" stroke="#000000" cx="1015.9033" cy="-127.5" rx="27" ry="18"/>
<text text-anchor="middle" x="1015.9033" y="-123.3" font-family="Times,serif" font-size="14.00" fill="#000000">+</text>
</g>
<!-- 4415108176&#45;&gt;4415108560+ -->
<g id="edge12" class="edge">
<title>4415108176&#45;&gt;4415108560+</title>
<path fill="none" stroke="#000000" d="M908.6435,-142.4427C933.627,-138.9622 959.1709,-135.4036 979.0608,-132.6326"/>
<polygon fill="#000000" stroke="#000000" points="979.7796,-136.0664 989.201,-131.22 978.8137,-129.1334 979.7796,-136.0664"/>
</g>
<!-- 4415109200 -->
<g id="node4" class="node">
<title>4415109200</title>
<polygon fill="none" stroke="#000000" points="2016.1455,-163.5 2016.1455,-199.5 2204.501,-199.5 2204.501,-163.5 2016.1455,-163.5"/>
<text text-anchor="middle" x="2025.8955" y="-177.3" font-family="Times,serif" font-size="14.00" fill="#000000"> </text>
<polyline fill="none" stroke="#000000" points="2035.6455,-163.5 2035.6455,-199.5 "/>
<text text-anchor="middle" x="2076.3042" y="-177.3" font-family="Times,serif" font-size="14.00" fill="#000000">data 6.8284</text>
<polyline fill="none" stroke="#000000" points="2116.9629,-163.5 2116.9629,-199.5 "/>
<text text-anchor="middle" x="2160.7319" y="-177.3" font-family="Times,serif" font-size="14.00" fill="#000000">grad &#45;0.1036</text>
</g>
<!-- 4415109264**&#45;1 -->
<g id="node12" class="node">
<title>4415109264**&#45;1</title>
<ellipse fill="none" stroke="#000000" cx="2332.3477" cy="-181.5" rx="27" ry="18"/>
<text text-anchor="middle" x="2332.3477" y="-177.3" font-family="Times,serif" font-size="14.00" fill="#000000">**&#45;1</text>
</g>
<!-- 4415109200&#45;&gt;4415109264**&#45;1 -->
<g id="edge18" class="edge">
<title>4415109200&#45;&gt;4415109264**&#45;1</title>
<path fill="none" stroke="#000000" d="M2204.8035,-181.5C2236.6116,-181.5 2270.2719,-181.5 2295.0217,-181.5"/>
<polygon fill="#000000" stroke="#000000" points="2295.0519,-185.0001 2305.0519,-181.5 2295.0518,-178.0001 2295.0519,-185.0001"/>
</g>
<!-- 4415109200+ -->
<g id="node5" class="node">
<title>4415109200+</title>
<ellipse fill="none" stroke="#000000" cx="1953.1455" cy="-181.5" rx="27" ry="18"/>
<text text-anchor="middle" x="1953.1455" y="-177.3" font-family="Times,serif" font-size="14.00" fill="#000000">+</text>
</g>
<!-- 4415109200+&#45;&gt;4415109200 -->
<g id="edge1" class="edge">
<title>4415109200+&#45;&gt;4415109200</title>
<path fill="none" stroke="#000000" d="M1980.1653,-181.5C1987.7713,-181.5 1996.5312,-181.5 2005.8364,-181.5"/>
<polygon fill="#000000" stroke="#000000" points="2006.1188,-185.0001 2016.1188,-181.5 2006.1188,-178.0001 2006.1188,-185.0001"/>
</g>
<!-- 4415108752 -->
<g id="node6" class="node">
<title>4415108752</title>
<polygon fill="none" stroke="#000000" points="1392.0967,-136.5 1392.0967,-172.5 1575.79,-172.5 1575.79,-136.5 1392.0967,-136.5"/>
<text text-anchor="middle" x="1401.8467" y="-150.3" font-family="Times,serif" font-size="14.00" fill="#000000"> </text>
<polyline fill="none" stroke="#000000" points="1411.5967,-136.5 1411.5967,-172.5 "/>
<text text-anchor="middle" x="1452.2554" y="-150.3" font-family="Times,serif" font-size="14.00" fill="#000000">data 1.7627</text>
<polyline fill="none" stroke="#000000" points="1492.9141,-136.5 1492.9141,-172.5 "/>
<text text-anchor="middle" x="1534.3521" y="-150.3" font-family="Times,serif" font-size="14.00" fill="#000000">grad 0.2500</text>
</g>
<!-- 4415108880exp -->
<g id="node18" class="node">
<title>4415108880exp</title>
<ellipse fill="none" stroke="#000000" cx="1638.79" cy="-154.5" rx="27" ry="18"/>
<text text-anchor="middle" x="1638.79" y="-150.3" font-family="Times,serif" font-size="14.00" fill="#000000">exp</text>
</g>
<!-- 4415108752&#45;&gt;4415108880exp -->
<g id="edge25" class="edge">
<title>4415108752&#45;&gt;4415108880exp</title>
<path fill="none" stroke="#000000" d="M1575.808,-154.5C1584.8643,-154.5 1593.6473,-154.5 1601.6373,-154.5"/>
<polygon fill="#000000" stroke="#000000" points="1601.6406,-158.0001 1611.6406,-154.5 1601.6406,-151.0001 1601.6406,-158.0001"/>
</g>
<!-- 4415108752*&#45;&gt;4415108752 -->
<g id="edge2" class="edge">
<title>4415108752*&#45;&gt;4415108752</title>
<path fill="none" stroke="#000000" d="M1356.4237,-154.5C1363.9475,-154.5 1372.5773,-154.5 1381.7233,-154.5"/>
<polygon fill="#000000" stroke="#000000" points="1381.8224,-158.0001 1391.8224,-154.5 1381.8224,-151.0001 1381.8224,-158.0001"/>
</g>
<!-- 4415108240 -->
<g id="node8" class="node">
<title>4415108240</title>
<polygon fill="none" stroke="#000000" points="327.9658,-110.5 327.9658,-146.5 550.9316,-146.5 550.9316,-110.5 327.9658,-110.5"/>
<text text-anchor="middle" x="355.021" y="-124.3" font-family="Times,serif" font-size="14.00" fill="#000000">x1*w1</text>
<polyline fill="none" stroke="#000000" points="382.0762,-110.5 382.0762,-146.5 "/>
<text text-anchor="middle" x="425.0659" y="-124.3" font-family="Times,serif" font-size="14.00" fill="#000000">data &#45;6.0000</text>
<polyline fill="none" stroke="#000000" points="468.0557,-110.5 468.0557,-146.5 "/>
<text text-anchor="middle" x="509.4937" y="-124.3" font-family="Times,serif" font-size="14.00" fill="#000000">grad 0.5000</text>
</g>
<!-- 4415108432+ -->
<g id="node22" class="node">
<title>4415108432+</title>
<ellipse fill="none" stroke="#000000" cx="613.9316" cy="-100.5" rx="27" ry="18"/>
<text text-anchor="middle" x="613.9316" y="-96.3" font-family="Times,serif" font-size="14.00" fill="#000000">+</text>
</g>
<!-- 4415108240&#45;&gt;4415108432+ -->
<g id="edge11" class="edge">
<title>4415108240&#45;&gt;4415108432+</title>
<path fill="none" stroke="#000000" d="M550.9393,-110.6086C560.32,-109.1033 569.2944,-107.6631 577.3794,-106.3657"/>
<polygon fill="#000000" stroke="#000000" points="578.1361,-109.7891 587.4551,-104.7488 577.0269,-102.8776 578.1361,-109.7891"/>
</g>
<!-- 4415108240* -->
<g id="node9" class="node">
<title>4415108240*</title>
<ellipse fill="none" stroke="#000000" cx="264.9658" cy="-128.5" rx="27" ry="18"/>
<text text-anchor="middle" x="264.9658" y="-124.3" font-family="Times,serif" font-size="14.00" fill="#000000">*</text>
</g>
<!-- 4415108240*&#45;&gt;4415108240 -->
<g id="edge3" class="edge">
<title>4415108240*&#45;&gt;4415108240</title>
<path fill="none" stroke="#000000" d="M292.2288,-128.5C299.6898,-128.5 308.2852,-128.5 317.4976,-128.5"/>
<polygon fill="#000000" stroke="#000000" points="317.7117,-132.0001 327.7116,-128.5 317.7116,-125.0001 317.7117,-132.0001"/>
</g>
<!-- 4415108048 -->
<g id="node10" class="node">
<title>4415108048</title>
<polygon fill="none" stroke="#000000" points="0,-165.5 0,-201.5 201.9658,-201.5 201.9658,-165.5 0,-165.5"/>
<text text-anchor="middle" x="16.5552" y="-179.3" font-family="Times,serif" font-size="14.00" fill="#000000">w1</text>
<polyline fill="none" stroke="#000000" points="33.1104,-165.5 33.1104,-201.5 "/>
<text text-anchor="middle" x="76.1001" y="-179.3" font-family="Times,serif" font-size="14.00" fill="#000000">data &#45;3.0000</text>
<polyline fill="none" stroke="#000000" points="119.0898,-165.5 119.0898,-201.5 "/>
<text text-anchor="middle" x="160.5278" y="-179.3" font-family="Times,serif" font-size="14.00" fill="#000000">grad 1.0000</text>
</g>
<!-- 4415108048&#45;&gt;4415108240* -->
<g id="edge21" class="edge">
<title>4415108048&#45;&gt;4415108240*</title>
<path fill="none" stroke="#000000" d="M173.9377,-165.4597C183.4374,-162.6833 192.9829,-159.675 201.9658,-156.5 212.5701,-152.7519 223.8779,-147.9828 233.944,-143.4472"/>
<polygon fill="#000000" stroke="#000000" points="235.5293,-146.5706 243.1509,-139.2111 232.6034,-140.2113 235.5293,-146.5706"/>
</g>
<!-- 4415109264 -->
<g id="node11" class="node">
<title>4415109264</title>
<polygon fill="none" stroke="#000000" points="2460.1943,-161.5 2460.1943,-197.5 2643.8877,-197.5 2643.8877,-161.5 2460.1943,-161.5"/>
<text text-anchor="middle" x="2469.9443" y="-175.3" font-family="Times,serif" font-size="14.00" fill="#000000"> </text>
<polyline fill="none" stroke="#000000" points="2479.6943,-161.5 2479.6943,-197.5 "/>
<text text-anchor="middle" x="2520.353" y="-175.3" font-family="Times,serif" font-size="14.00" fill="#000000">data 0.1464</text>
<polyline fill="none" stroke="#000000" points="2561.0117,-161.5 2561.0117,-197.5 "/>
<text text-anchor="middle" x="2602.4497" y="-175.3" font-family="Times,serif" font-size="14.00" fill="#000000">grad 4.8284</text>
</g>
<!-- 4415109392* -->
<g id="node20" class="node">
<title>4415109392*</title>
<ellipse fill="none" stroke="#000000" cx="2706.8877" cy="-153.5" rx="27" ry="18"/>
<text text-anchor="middle" x="2706.8877" y="-149.3" font-family="Times,serif" font-size="14.00" fill="#000000">*</text>
</g>
<!-- 4415109264&#45;&gt;4415109392* -->
<g id="edge13" class="edge">
<title>4415109264&#45;&gt;4415109392*</title>
<path fill="none" stroke="#000000" d="M2643.9056,-164.0752C2653.3384,-162.4914 2662.4747,-160.9573 2670.7273,-159.5716"/>
<polygon fill="#000000" stroke="#000000" points="2671.3815,-163.0109 2680.6639,-157.9032 2670.2223,-156.1075 2671.3815,-163.0109"/>
</g>
<!-- 4415109264**&#45;1&#45;&gt;4415109264 -->
<g id="edge4" class="edge">
<title>4415109264**&#45;1&#45;&gt;4415109264</title>
<path fill="none" stroke="#000000" d="M2359.7278,-181.2507C2382.5566,-181.0429 2416.584,-180.7331 2449.6978,-180.4317"/>
<polygon fill="#000000" stroke="#000000" points="2449.9641,-183.9295 2459.9318,-180.3385 2449.9003,-176.9298 2449.9641,-183.9295"/>
</g>
<!-- 4415107792 -->
<g id="node13" class="node">
<title>4415107792</title>
<polygon fill="none" stroke="#000000" points="1.5552,-110.5 1.5552,-146.5 200.4106,-146.5 200.4106,-110.5 1.5552,-110.5"/>
<text text-anchor="middle" x="16.5552" y="-124.3" font-family="Times,serif" font-size="14.00" fill="#000000">x1</text>
<polyline fill="none" stroke="#000000" points="31.5552,-110.5 31.5552,-146.5 "/>
<text text-anchor="middle" x="72.2139" y="-124.3" font-family="Times,serif" font-size="14.00" fill="#000000">data 2.0000</text>
<polyline fill="none" stroke="#000000" points="112.8726,-110.5 112.8726,-146.5 "/>
<text text-anchor="middle" x="156.6416" y="-124.3" font-family="Times,serif" font-size="14.00" fill="#000000">grad &#45;1.5000</text>
</g>
<!-- 4415107792&#45;&gt;4415108240* -->
<g id="edge23" class="edge">
<title>4415107792&#45;&gt;4415108240*</title>
<path fill="none" stroke="#000000" d="M200.6261,-128.5C210.1516,-128.5 219.3434,-128.5 227.6537,-128.5"/>
<polygon fill="#000000" stroke="#000000" points="227.6673,-132.0001 237.6673,-128.5 227.6673,-125.0001 227.6673,-132.0001"/>
</g>
<!-- 4415108304 -->
<g id="node14" class="node">
<title>4415108304</title>
<polygon fill="none" stroke="#000000" points="330.2969,-55.5 330.2969,-91.5 548.6006,-91.5 548.6006,-55.5 330.2969,-55.5"/>
<text text-anchor="middle" x="357.3521" y="-69.3" font-family="Times,serif" font-size="14.00" fill="#000000">x2*w2</text>
<polyline fill="none" stroke="#000000" points="384.4072,-55.5 384.4072,-91.5 "/>
<text text-anchor="middle" x="425.0659" y="-69.3" font-family="Times,serif" font-size="14.00" fill="#000000">data 0.0000</text>
<polyline fill="none" stroke="#000000" points="465.7246,-55.5 465.7246,-91.5 "/>
<text text-anchor="middle" x="507.1626" y="-69.3" font-family="Times,serif" font-size="14.00" fill="#000000">grad 0.5000</text>
</g>
<!-- 4415108304&#45;&gt;4415108432+ -->
<g id="edge27" class="edge">
<title>4415108304&#45;&gt;4415108432+</title>
<path fill="none" stroke="#000000" d="M548.9606,-90.4462C559.0855,-92.013 568.7816,-93.5133 577.4518,-94.855"/>
<polygon fill="#000000" stroke="#000000" points="577.0612,-98.3361 587.4788,-96.4066 578.1317,-91.4185 577.0612,-98.3361"/>
</g>
<!-- 4415108304*&#45;&gt;4415108304 -->
<g id="edge5" class="edge">
<title>4415108304*&#45;&gt;4415108304</title>
<path fill="none" stroke="#000000" d="M292.2288,-73.5C300.2799,-73.5 309.6518,-73.5 319.6946,-73.5"/>
<polygon fill="#000000" stroke="#000000" points="319.9369,-77.0001 329.9368,-73.5 319.9368,-70.0001 319.9369,-77.0001"/>
</g>
<!-- 4415109072 -->
<g id="node16" class="node">
<title>4415109072</title>
<polygon fill="none" stroke="#000000" points="1701.79,-191.5 1701.79,-227.5 1890.1455,-227.5 1890.1455,-191.5 1701.79,-191.5"/>
<text text-anchor="middle" x="1711.54" y="-205.3" font-family="Times,serif" font-size="14.00" fill="#000000"> </text>
<polyline fill="none" stroke="#000000" points="1721.29,-191.5 1721.29,-227.5 "/>
<text text-anchor="middle" x="1761.9487" y="-205.3" font-family="Times,serif" font-size="14.00" fill="#000000">data 1.0000</text>
<polyline fill="none" stroke="#000000" points="1802.6074,-191.5 1802.6074,-227.5 "/>
<text text-anchor="middle" x="1846.3765" y="-205.3" font-family="Times,serif" font-size="14.00" fill="#000000">grad &#45;0.1036</text>
</g>
<!-- 4415109072&#45;&gt;4415109200+ -->
<g id="edge16" class="edge">
<title>4415109072&#45;&gt;4415109200+</title>
<path fill="none" stroke="#000000" d="M1890.5731,-192.6468C1899.7952,-191.004 1908.71,-189.4159 1916.7799,-187.9782"/>
<polygon fill="#000000" stroke="#000000" points="1917.6257,-191.3828 1926.8569,-186.1831 1916.398,-184.4913 1917.6257,-191.3828"/>
</g>
<!-- 4415108880 -->
<g id="node17" class="node">
<title>4415108880</title>
<polygon fill="none" stroke="#000000" points="1704.1211,-136.5 1704.1211,-172.5 1887.8145,-172.5 1887.8145,-136.5 1704.1211,-136.5"/>
<text text-anchor="middle" x="1713.8711" y="-150.3" font-family="Times,serif" font-size="14.00" fill="#000000"> </text>
<polyline fill="none" stroke="#000000" points="1723.6211,-136.5 1723.6211,-172.5 "/>
<text text-anchor="middle" x="1764.2798" y="-150.3" font-family="Times,serif" font-size="14.00" fill="#000000">data 5.8284</text>
<polyline fill="none" stroke="#000000" points="1804.9385,-136.5 1804.9385,-172.5 "/>
<text text-anchor="middle" x="1846.3765" y="-150.3" font-family="Times,serif" font-size="14.00" fill="#000000">grad 0.0429</text>
</g>
<!-- 4415108880&#45;&gt;4415109200+ -->
<g id="edge24" class="edge">
<title>4415108880&#45;&gt;4415109200+</title>
<path fill="none" stroke="#000000" d="M1887.8535,-170.2841C1898.09,-172.0426 1908.0165,-173.7477 1916.9109,-175.2756"/>
<polygon fill="#000000" stroke="#000000" points="1916.3865,-178.7367 1926.8347,-176.9803 1917.5717,-171.8378 1916.3865,-178.7367"/>
</g>
<!-- 4415109008+ -->
<g id="node26" class="node">
<title>4415109008+</title>
<ellipse fill="none" stroke="#000000" cx="1953.1455" cy="-126.5" rx="27" ry="18"/>
<text text-anchor="middle" x="1953.1455" y="-122.3" font-family="Times,serif" font-size="14.00" fill="#000000">+</text>
</g>
<!-- 4415108880&#45;&gt;4415109008+ -->
<g id="edge17" class="edge">
<title>4415108880&#45;&gt;4415109008+</title>
<path fill="none" stroke="#000000" d="M1887.8535,-138.1313C1898.09,-136.3077 1908.0165,-134.5394 1916.9109,-132.9549"/>
<polygon fill="#000000" stroke="#000000" points="1917.6036,-136.3867 1926.8347,-131.1871 1916.3759,-129.4952 1917.6036,-136.3867"/>
</g>
<!-- 4415108880exp&#45;&gt;4415108880 -->
<g id="edge6" class="edge">
<title>4415108880exp&#45;&gt;4415108880</title>
<path fill="none" stroke="#000000" d="M1665.8099,-154.5C1674.1242,-154.5 1683.8173,-154.5 1694.0944,-154.5"/>
<polygon fill="#000000" stroke="#000000" points="1694.1007,-158.0001 1704.1007,-154.5 1694.1007,-151.0001 1694.1007,-158.0001"/>
</g>
<!-- 4415109392 -->
<g id="node19" class="node">
<title>4415109392</title>
<polygon fill="none" stroke="#000000" points="2769.8877,-135.5 2769.8877,-171.5 2953.5811,-171.5 2953.5811,-135.5 2769.8877,-135.5"/>
<text text-anchor="middle" x="2779.6377" y="-149.3" font-family="Times,serif" font-size="14.00" fill="#000000"> </text>
<polyline fill="none" stroke="#000000" points="2789.3877,-135.5 2789.3877,-171.5 "/>
<text text-anchor="middle" x="2830.0464" y="-149.3" font-family="Times,serif" font-size="14.00" fill="#000000">data 0.7071</text>
<polyline fill="none" stroke="#000000" points="2870.7051,-135.5 2870.7051,-171.5 "/>
<text text-anchor="middle" x="2912.1431" y="-149.3" font-family="Times,serif" font-size="14.00" fill="#000000">grad 1.0000</text>
</g>
<!-- 4415109392*&#45;&gt;4415109392 -->
<g id="edge7" class="edge">
<title>4415109392*&#45;&gt;4415109392</title>
<path fill="none" stroke="#000000" d="M2734.2147,-153.5C2741.7385,-153.5 2750.3683,-153.5 2759.5144,-153.5"/>
<polygon fill="#000000" stroke="#000000" points="2759.6135,-157.0001 2769.6134,-153.5 2759.6134,-150.0001 2759.6135,-157.0001"/>
</g>
<!-- 4415108432 -->
<g id="node21" class="node">
<title>4415108432</title>
<polygon fill="none" stroke="#000000" points="676.9316,-82.5 676.9316,-118.5 952.9033,-118.5 952.9033,-82.5 676.9316,-82.5"/>
<text text-anchor="middle" x="730.4897" y="-96.3" font-family="Times,serif" font-size="14.00" fill="#000000">x1*w1 + x2*w2</text>
<polyline fill="none" stroke="#000000" points="784.0479,-82.5 784.0479,-118.5 "/>
<text text-anchor="middle" x="827.0376" y="-96.3" font-family="Times,serif" font-size="14.00" fill="#000000">data &#45;6.0000</text>
<polyline fill="none" stroke="#000000" points="870.0273,-82.5 870.0273,-118.5 "/>
<text text-anchor="middle" x="911.4653" y="-96.3" font-family="Times,serif" font-size="14.00" fill="#000000">grad 0.5000</text>
</g>
<!-- 4415108432&#45;&gt;4415108560+ -->
<g id="edge19" class="edge">
<title>4415108432&#45;&gt;4415108560+</title>
<path fill="none" stroke="#000000" d="M948.9779,-118.5094C959.8465,-119.9695 970.1233,-121.35 979.2126,-122.571"/>
<polygon fill="#000000" stroke="#000000" points="978.9245,-126.0637 989.3015,-123.9264 979.8565,-119.126 978.9245,-126.0637"/>
</g>
<!-- 4415108432+&#45;&gt;4415108432 -->
<g id="edge8" class="edge">
<title>4415108432+&#45;&gt;4415108432</title>
<path fill="none" stroke="#000000" d="M641.0375,-100.5C648.5128,-100.5 657.1794,-100.5 666.5738,-100.5"/>
<polygon fill="#000000" stroke="#000000" points="666.6079,-104.0001 676.6078,-100.5 666.6078,-97.0001 666.6079,-104.0001"/>
</g>
<!-- 4415108944 -->
<g id="node23" class="node">
<title>4415108944</title>
<polygon fill="none" stroke="#000000" points="1701.79,-81.5 1701.79,-117.5 1890.1455,-117.5 1890.1455,-81.5 1701.79,-81.5"/>
<text text-anchor="middle" x="1711.54" y="-95.3" font-family="Times,serif" font-size="14.00" fill="#000000"> </text>
<polyline fill="none" stroke="#000000" points="1721.29,-81.5 1721.29,-117.5 "/>
<text text-anchor="middle" x="1764.2798" y="-95.3" font-family="Times,serif" font-size="14.00" fill="#000000">data &#45;1.0000</text>
<polyline fill="none" stroke="#000000" points="1807.2695,-81.5 1807.2695,-117.5 "/>
<text text-anchor="middle" x="1848.7075" y="-95.3" font-family="Times,serif" font-size="14.00" fill="#000000">grad 0.1464</text>
</g>
<!-- 4415108944&#45;&gt;4415109008+ -->
<g id="edge15" class="edge">
<title>4415108944&#45;&gt;4415109008+</title>
<path fill="none" stroke="#000000" d="M1890.5731,-115.7513C1899.7952,-117.3355 1908.71,-118.8669 1916.7799,-120.2531"/>
<polygon fill="#000000" stroke="#000000" points="1916.4086,-123.7405 1926.8569,-121.9841 1917.5938,-116.8416 1916.4086,-123.7405"/>
</g>
<!-- 4415107984 -->
<g id="node24" class="node">
<title>4415107984</title>
<polygon fill="none" stroke="#000000" points="3.8862,-.5 3.8862,-36.5 198.0796,-36.5 198.0796,-.5 3.8862,-.5"/>
<text text-anchor="middle" x="18.8862" y="-14.3" font-family="Times,serif" font-size="14.00" fill="#000000">x2</text>
<polyline fill="none" stroke="#000000" points="33.8862,-.5 33.8862,-36.5 "/>
<text text-anchor="middle" x="74.5449" y="-14.3" font-family="Times,serif" font-size="14.00" fill="#000000">data 0.0000</text>
<polyline fill="none" stroke="#000000" points="115.2036,-.5 115.2036,-36.5 "/>
<text text-anchor="middle" x="156.6416" y="-14.3" font-family="Times,serif" font-size="14.00" fill="#000000">grad 0.5000</text>
</g>
<!-- 4415107984&#45;&gt;4415108304* -->
<g id="edge28" class="edge">
<title>4415107984&#45;&gt;4415108304*</title>
<path fill="none" stroke="#000000" d="M173.9377,-36.5403C183.4374,-39.3167 192.9829,-42.325 201.9658,-45.5 212.5701,-49.2481 223.8779,-54.0172 233.944,-58.5528"/>
<polygon fill="#000000" stroke="#000000" points="232.6034,-61.7887 243.1509,-62.7889 235.5293,-55.4294 232.6034,-61.7887"/>
</g>
<!-- 4415109008 -->
<g id="node25" class="node">
<title>4415109008</title>
<polygon fill="none" stroke="#000000" points="2240.501,-108.5 2240.501,-144.5 2424.1943,-144.5 2424.1943,-108.5 2240.501,-108.5"/>
<text text-anchor="middle" x="2250.251" y="-122.3" font-family="Times,serif" font-size="14.00" fill="#000000"> </text>
<polyline fill="none" stroke="#000000" points="2260.001,-108.5 2260.001,-144.5 "/>
<text text-anchor="middle" x="2300.6597" y="-122.3" font-family="Times,serif" font-size="14.00" fill="#000000">data 4.8284</text>
<polyline fill="none" stroke="#000000" points="2341.3184,-108.5 2341.3184,-144.5 "/>
<text text-anchor="middle" x="2382.7563" y="-122.3" font-family="Times,serif" font-size="14.00" fill="#000000">grad 0.1464</text>
</g>
<!-- 4415109008&#45;&gt;4415109392* -->
<g id="edge22" class="edge">
<title>4415109008&#45;&gt;4415109392*</title>
<path fill="none" stroke="#000000" d="M2424.4502,-133.1395C2503.4015,-138.831 2613.0889,-146.7382 2669.7326,-150.8215"/>
<polygon fill="#000000" stroke="#000000" points="2669.7753,-154.3336 2680.0011,-151.5618 2670.2786,-147.3517 2669.7753,-154.3336"/>
</g>
<!-- 4415109008+&#45;&gt;4415109008 -->
<g id="edge9" class="edge">
<title>4415109008+&#45;&gt;4415109008</title>
<path fill="none" stroke="#000000" d="M1980.4168,-126.5C2031.902,-126.5 2145.8118,-126.5 2230.1657,-126.5"/>
<polygon fill="#000000" stroke="#000000" points="2230.3001,-130.0001 2240.3001,-126.5 2230.3,-123.0001 2230.3001,-130.0001"/>
</g>
<!-- 4415108560 -->
<g id="node27" class="node">
<title>4415108560</title>
<polygon fill="none" stroke="#000000" points="1078.9033,-109.5 1078.9033,-145.5 1266.0967,-145.5 1266.0967,-109.5 1078.9033,-109.5"/>
<text text-anchor="middle" x="1090.4033" y="-123.3" font-family="Times,serif" font-size="14.00" fill="#000000">n</text>
<polyline fill="none" stroke="#000000" points="1101.9033,-109.5 1101.9033,-145.5 "/>
<text text-anchor="middle" x="1142.562" y="-123.3" font-family="Times,serif" font-size="14.00" fill="#000000">data 0.8814</text>
<polyline fill="none" stroke="#000000" points="1183.2207,-109.5 1183.2207,-145.5 "/>
<text text-anchor="middle" x="1224.6587" y="-123.3" font-family="Times,serif" font-size="14.00" fill="#000000">grad 0.5000</text>
</g>
<!-- 4415108560&#45;&gt;4415108752* -->
<g id="edge20" class="edge">
<title>4415108560&#45;&gt;4415108752*</title>
<path fill="none" stroke="#000000" d="M1266.3051,-143.6736C1275.5446,-145.2667 1284.484,-146.808 1292.5804,-148.2039"/>
<polygon fill="#000000" stroke="#000000" points="1292.2434,-151.6974 1302.6927,-149.9475 1293.4328,-144.7992 1292.2434,-151.6974"/>
</g>
<!-- 4415108560+&#45;&gt;4415108560 -->
<g id="edge10" class="edge">
<title>4415108560+&#45;&gt;4415108560</title>
<path fill="none" stroke="#000000" d="M1043.1804,-127.5C1050.7096,-127.5 1059.3537,-127.5 1068.5265,-127.5"/>
<polygon fill="#000000" stroke="#000000" points="1068.6597,-131.0001 1078.6597,-127.5 1068.6596,-124.0001 1068.6597,-131.0001"/>
</g>
</g>
</svg>
