<?xml version="1.0" encoding="UTF-8" standalone="no"?>
<!DOCTYPE svg PUBLIC "-//W3C//DTD SVG 1.1//EN"
 "http://www.w3.org/Graphics/SVG/1.1/DTD/svg11.dtd">
<!-- Generated by graphviz version 2.40.1 (20161225.0304)
 -->
<!-- Title: %3 Pages: 1 -->
<svg width="1587pt" height="210pt"
 viewBox="0.00 0.00 1587.29 210.00" xmlns="http://www.w3.org/2000/svg" xmlns:xlink="http://www.w3.org/1999/xlink">
<g id="graph0" class="graph" transform="scale(1 1) rotate(0) translate(4 206)">
<title>%3</title>
<polygon fill="#ffffff" stroke="transparent" points="-4,4 -4,-206 1583.29,-206 1583.29,4 -4,4"/>
<!-- 4388629072 -->
<g id="node1" class="node">
<title>4388629072</title>
<polygon fill="none" stroke="#000000" points="676.9316,-82.5 676.9316,-118.5 952.9033,-118.5 952.9033,-82.5 676.9316,-82.5"/>
<text text-anchor="middle" x="730.4897" y="-96.3" font-family="Times,serif" font-size="14.00" fill="#000000">x1*w1 + x2*w2</text>
<polyline fill="none" stroke="#000000" points="784.0479,-82.5 784.0479,-118.5 "/>
<text text-anchor="middle" x="827.0376" y="-96.3" font-family="Times,serif" font-size="14.00" fill="#000000">data &#45;6.0000</text>
<polyline fill="none" stroke="#000000" points="870.0273,-82.5 870.0273,-118.5 "/>
<text text-anchor="middle" x="911.4653" y="-96.3" font-family="Times,serif" font-size="14.00" fill="#000000">grad 0.0000</text>
</g>
<!-- 4388629200+ -->
<g id="node6" class="node">
<title>4388629200+</title>
<ellipse fill="none" stroke="#000000" cx="1015.9033" cy="-127.5" rx="27" ry="18"/>
<text text-anchor="middle" x="1015.9033" y="-123.3" font-family="Times,serif" font-size="14.00" fill="#000000">+</text>
</g>
<!-- 4388629072&#45;&gt;4388629200+ -->
<g id="edge10" class="edge">
<title>4388629072&#45;&gt;4388629200+</title>
<path fill="none" stroke="#000000" d="M948.9779,-118.5094C959.8465,-119.9695 970.1233,-121.35 979.2126,-122.571"/>
<polygon fill="#000000" stroke="#000000" points="978.9245,-126.0637 989.3015,-123.9264 979.8565,-119.126 978.9245,-126.0637"/>
</g>
<!-- 4388629072+ -->
<g id="node2" class="node">
<title>4388629072+</title>
<ellipse fill="none" stroke="#000000" cx="613.9316" cy="-100.5" rx="27" ry="18"/>
<text text-anchor="middle" x="613.9316" y="-96.3" font-family="Times,serif" font-size="14.00" fill="#000000">+</text>
</g>
<!-- 4388629072+&#45;&gt;4388629072 -->
<g id="edge1" class="edge">
<title>4388629072+&#45;&gt;4388629072</title>
<path fill="none" stroke="#000000" d="M641.0375,-100.5C648.5128,-100.5 657.1794,-100.5 666.5738,-100.5"/>
<polygon fill="#000000" stroke="#000000" points="666.6079,-104.0001 676.6078,-100.5 666.6078,-97.0001 666.6079,-104.0001"/>
</g>
<!-- 4385625744 -->
<g id="node3" class="node">
<title>4385625744</title>
<polygon fill="none" stroke="#000000" points="1.5552,-165.5 1.5552,-201.5 200.4106,-201.5 200.4106,-165.5 1.5552,-165.5"/>
<text text-anchor="middle" x="16.5552" y="-179.3" font-family="Times,serif" font-size="14.00" fill="#000000">x1</text>
<polyline fill="none" stroke="#000000" points="31.5552,-165.5 31.5552,-201.5 "/>
<text text-anchor="middle" x="72.2139" y="-179.3" font-family="Times,serif" font-size="14.00" fill="#000000">data 2.0000</text>
<polyline fill="none" stroke="#000000" points="112.8726,-165.5 112.8726,-201.5 "/>
<text text-anchor="middle" x="156.6416" y="-179.3" font-family="Times,serif" font-size="14.00" fill="#000000">grad &#45;0.0000</text>
</g>
<!-- 4388628880* -->
<g id="node13" class="node">
<title>4388628880*</title>
<ellipse fill="none" stroke="#000000" cx="264.9658" cy="-128.5" rx="27" ry="18"/>
<text text-anchor="middle" x="264.9658" y="-124.3" font-family="Times,serif" font-size="14.00" fill="#000000">*</text>
</g>
<!-- 4385625744&#45;&gt;4388628880* -->
<g id="edge13" class="edge">
<title>4385625744&#45;&gt;4388628880*</title>
<path fill="none" stroke="#000000" d="M173.9377,-165.4597C183.4374,-162.6833 192.9829,-159.675 201.9658,-156.5 212.5701,-152.7519 223.8779,-147.9828 233.944,-143.4472"/>
<polygon fill="#000000" stroke="#000000" points="235.5293,-146.5706 243.1509,-139.2111 232.6034,-140.2113 235.5293,-146.5706"/>
</g>
<!-- 4388628624 -->
<g id="node4" class="node">
<title>4388628624</title>
<polygon fill="none" stroke="#000000" points="3.8862,-55.5 3.8862,-91.5 198.0796,-91.5 198.0796,-55.5 3.8862,-55.5"/>
<text text-anchor="middle" x="18.8862" y="-69.3" font-family="Times,serif" font-size="14.00" fill="#000000">x2</text>
<polyline fill="none" stroke="#000000" points="33.8862,-55.5 33.8862,-91.5 "/>
<text text-anchor="middle" x="74.5449" y="-69.3" font-family="Times,serif" font-size="14.00" fill="#000000">data 0.0000</text>
<polyline fill="none" stroke="#000000" points="115.2036,-55.5 115.2036,-91.5 "/>
<text text-anchor="middle" x="156.6416" y="-69.3" font-family="Times,serif" font-size="14.00" fill="#000000">grad 0.0000</text>
</g>
<!-- 4388628944* -->
<g id="node15" class="node">
<title>4388628944*</title>
<ellipse fill="none" stroke="#000000" cx="264.9658" cy="-73.5" rx="27" ry="18"/>
<text text-anchor="middle" x="264.9658" y="-69.3" font-family="Times,serif" font-size="14.00" fill="#000000">*</text>
</g>
<!-- 4388628624&#45;&gt;4388628944* -->
<g id="edge7" class="edge">
<title>4388628624&#45;&gt;4388628944*</title>
<path fill="none" stroke="#000000" d="M198.2677,-73.5C208.6773,-73.5 218.7459,-73.5 227.77,-73.5"/>
<polygon fill="#000000" stroke="#000000" points="227.8414,-77.0001 237.8414,-73.5 227.8414,-70.0001 227.8414,-77.0001"/>
</g>
<!-- 4388629200 -->
<g id="node5" class="node">
<title>4388629200</title>
<polygon fill="none" stroke="#000000" points="1078.9033,-109.5 1078.9033,-145.5 1266.0967,-145.5 1266.0967,-109.5 1078.9033,-109.5"/>
<text text-anchor="middle" x="1090.4033" y="-123.3" font-family="Times,serif" font-size="14.00" fill="#000000">n</text>
<polyline fill="none" stroke="#000000" points="1101.9033,-109.5 1101.9033,-145.5 "/>
<text text-anchor="middle" x="1142.562" y="-123.3" font-family="Times,serif" font-size="14.00" fill="#000000">data 0.8814</text>
<polyline fill="none" stroke="#000000" points="1183.2207,-109.5 1183.2207,-145.5 "/>
<text text-anchor="middle" x="1224.6587" y="-123.3" font-family="Times,serif" font-size="14.00" fill="#000000">grad 0.5000</text>
</g>
<!-- 4388629328tanh -->
<g id="node10" class="node">
<title>4388629328tanh</title>
<ellipse fill="none" stroke="#000000" cx="1329.0967" cy="-127.5" rx="27" ry="18"/>
<text text-anchor="middle" x="1329.0967" y="-123.3" font-family="Times,serif" font-size="14.00" fill="#000000">tanh</text>
</g>
<!-- 4388629200&#45;&gt;4388629328tanh -->
<g id="edge12" class="edge">
<title>4388629200&#45;&gt;4388629328tanh</title>
<path fill="none" stroke="#000000" d="M1266.3051,-127.5C1275.2616,-127.5 1283.9362,-127.5 1291.8342,-127.5"/>
<polygon fill="#000000" stroke="#000000" points="1292.0765,-131.0001 1302.0765,-127.5 1292.0764,-124.0001 1292.0765,-131.0001"/>
</g>
<!-- 4388629200+&#45;&gt;4388629200 -->
<g id="edge2" class="edge">
<title>4388629200+&#45;&gt;4388629200</title>
<path fill="none" stroke="#000000" d="M1043.1804,-127.5C1050.7096,-127.5 1059.3537,-127.5 1068.5265,-127.5"/>
<polygon fill="#000000" stroke="#000000" points="1068.6597,-131.0001 1078.6597,-127.5 1068.6596,-124.0001 1068.6597,-131.0001"/>
</g>
<!-- 4388628688 -->
<g id="node7" class="node">
<title>4388628688</title>
<polygon fill="none" stroke="#000000" points="0,-110.5 0,-146.5 201.9658,-146.5 201.9658,-110.5 0,-110.5"/>
<text text-anchor="middle" x="16.5552" y="-124.3" font-family="Times,serif" font-size="14.00" fill="#000000">w1</text>
<polyline fill="none" stroke="#000000" points="33.1104,-110.5 33.1104,-146.5 "/>
<text text-anchor="middle" x="76.1001" y="-124.3" font-family="Times,serif" font-size="14.00" fill="#000000">data &#45;3.0000</text>
<polyline fill="none" stroke="#000000" points="119.0898,-110.5 119.0898,-146.5 "/>
<text text-anchor="middle" x="160.5278" y="-124.3" font-family="Times,serif" font-size="14.00" fill="#000000">grad 0.0000</text>
</g>
<!-- 4388628688&#45;&gt;4388628880* -->
<g id="edge9" class="edge">
<title>4388628688&#45;&gt;4388628880*</title>
<path fill="none" stroke="#000000" d="M202.0347,-128.5C211.0067,-128.5 219.6562,-128.5 227.5207,-128.5"/>
<polygon fill="#000000" stroke="#000000" points="227.7149,-132.0001 237.7148,-128.5 227.7148,-125.0001 227.7149,-132.0001"/>
</g>
<!-- 4388628752 -->
<g id="node8" class="node">
<title>4388628752</title>
<polygon fill="none" stroke="#000000" points="2.3311,-.5 2.3311,-36.5 199.6348,-36.5 199.6348,-.5 2.3311,-.5"/>
<text text-anchor="middle" x="18.8862" y="-14.3" font-family="Times,serif" font-size="14.00" fill="#000000">w2</text>
<polyline fill="none" stroke="#000000" points="35.4414,-.5 35.4414,-36.5 "/>
<text text-anchor="middle" x="76.1001" y="-14.3" font-family="Times,serif" font-size="14.00" fill="#000000">data 1.0000</text>
<polyline fill="none" stroke="#000000" points="116.7588,-.5 116.7588,-36.5 "/>
<text text-anchor="middle" x="158.1968" y="-14.3" font-family="Times,serif" font-size="14.00" fill="#000000">grad 0.0000</text>
</g>
<!-- 4388628752&#45;&gt;4388628944* -->
<g id="edge8" class="edge">
<title>4388628752&#45;&gt;4388628944*</title>
<path fill="none" stroke="#000000" d="M170.8966,-36.5656C181.3814,-39.655 192.0097,-43.0041 201.9658,-46.5 212.4312,-50.1748 223.6276,-54.753 233.6354,-59.0896"/>
<polygon fill="#000000" stroke="#000000" points="232.2417,-62.3002 242.8035,-63.1359 235.0681,-55.8961 232.2417,-62.3002"/>
</g>
<!-- 4388629328 -->
<g id="node9" class="node">
<title>4388629328</title>
<polygon fill="none" stroke="#000000" points="1392.0967,-109.5 1392.0967,-145.5 1579.29,-145.5 1579.29,-109.5 1392.0967,-109.5"/>
<text text-anchor="middle" x="1403.5967" y="-123.3" font-family="Times,serif" font-size="14.00" fill="#000000">o</text>
<polyline fill="none" stroke="#000000" points="1415.0967,-109.5 1415.0967,-145.5 "/>
<text text-anchor="middle" x="1455.7554" y="-123.3" font-family="Times,serif" font-size="14.00" fill="#000000">data 0.7071</text>
<polyline fill="none" stroke="#000000" points="1496.4141,-109.5 1496.4141,-145.5 "/>
<text text-anchor="middle" x="1537.8521" y="-123.3" font-family="Times,serif" font-size="14.00" fill="#000000">grad 1.0000</text>
</g>
<!-- 4388629328tanh&#45;&gt;4388629328 -->
<g id="edge3" class="edge">
<title>4388629328tanh&#45;&gt;4388629328</title>
<path fill="none" stroke="#000000" d="M1356.3737,-127.5C1363.903,-127.5 1372.5471,-127.5 1381.7199,-127.5"/>
<polygon fill="#000000" stroke="#000000" points="1381.8531,-131.0001 1391.853,-127.5 1381.853,-124.0001 1381.8531,-131.0001"/>
</g>
<!-- 4388628816 -->
<g id="node11" class="node">
<title>4388628816</title>
<polygon fill="none" stroke="#000000" points="721.3208,-137.5 721.3208,-173.5 908.5142,-173.5 908.5142,-137.5 721.3208,-137.5"/>
<text text-anchor="middle" x="732.8208" y="-151.3" font-family="Times,serif" font-size="14.00" fill="#000000">b</text>
<polyline fill="none" stroke="#000000" points="744.3208,-137.5 744.3208,-173.5 "/>
<text text-anchor="middle" x="784.9795" y="-151.3" font-family="Times,serif" font-size="14.00" fill="#000000">data 6.8814</text>
<polyline fill="none" stroke="#000000" points="825.6382,-137.5 825.6382,-173.5 "/>
<text text-anchor="middle" x="867.0762" y="-151.3" font-family="Times,serif" font-size="14.00" fill="#000000">grad 0.0000</text>
</g>
<!-- 4388628816&#45;&gt;4388629200+ -->
<g id="edge11" class="edge">
<title>4388628816&#45;&gt;4388629200+</title>
<path fill="none" stroke="#000000" d="M908.6435,-142.4427C933.627,-138.9622 959.1709,-135.4036 979.0608,-132.6326"/>
<polygon fill="#000000" stroke="#000000" points="979.7796,-136.0664 989.201,-131.22 978.8137,-129.1334 979.7796,-136.0664"/>
</g>
<!-- 4388628880 -->
<g id="node12" class="node">
<title>4388628880</title>
<polygon fill="none" stroke="#000000" points="327.9658,-110.5 327.9658,-146.5 550.9316,-146.5 550.9316,-110.5 327.9658,-110.5"/>
<text text-anchor="middle" x="355.021" y="-124.3" font-family="Times,serif" font-size="14.00" fill="#000000">x1*w1</text>
<polyline fill="none" stroke="#000000" points="382.0762,-110.5 382.0762,-146.5 "/>
<text text-anchor="middle" x="425.0659" y="-124.3" font-family="Times,serif" font-size="14.00" fill="#000000">data &#45;6.0000</text>
<polyline fill="none" stroke="#000000" points="468.0557,-110.5 468.0557,-146.5 "/>
<text text-anchor="middle" x="509.4937" y="-124.3" font-family="Times,serif" font-size="14.00" fill="#000000">grad 0.0000</text>
</g>
<!-- 4388628880&#45;&gt;4388629072+ -->
<g id="edge6" class="edge">
<title>4388628880&#45;&gt;4388629072+</title>
<path fill="none" stroke="#000000" d="M550.9393,-110.6086C560.32,-109.1033 569.2944,-107.6631 577.3794,-106.3657"/>
<polygon fill="#000000" stroke="#000000" points="578.1361,-109.7891 587.4551,-104.7488 577.0269,-102.8776 578.1361,-109.7891"/>
</g>
<!-- 4388628880*&#45;&gt;4388628880 -->
<g id="edge4" class="edge">
<title>4388628880*&#45;&gt;4388628880</title>
<path fill="none" stroke="#000000" d="M292.2288,-128.5C299.6898,-128.5 308.2852,-128.5 317.4976,-128.5"/>
<polygon fill="#000000" stroke="#000000" points="317.7117,-132.0001 327.7116,-128.5 317.7116,-125.0001 317.7117,-132.0001"/>
</g>
<!-- 4388628944 -->
<g id="node14" class="node">
<title>4388628944</title>
<polygon fill="none" stroke="#000000" points="330.2969,-55.5 330.2969,-91.5 548.6006,-91.5 548.6006,-55.5 330.2969,-55.5"/>
<text text-anchor="middle" x="357.3521" y="-69.3" font-family="Times,serif" font-size="14.00" fill="#000000">x2*w2</text>
<polyline fill="none" stroke="#000000" points="384.4072,-55.5 384.4072,-91.5 "/>
<text text-anchor="middle" x="425.0659" y="-69.3" font-family="Times,serif" font-size="14.00" fill="#000000">data 0.0000</text>
<polyline fill="none" stroke="#000000" points="465.7246,-55.5 465.7246,-91.5 "/>
<text text-anchor="middle" x="507.1626" y="-69.3" font-family="Times,serif" font-size="14.00" fill="#000000">grad 0.0000</text>
</g>
<!-- 4388628944&#45;&gt;4388629072+ -->
<g id="edge14" class="edge">
<title>4388628944&#45;&gt;4388629072+</title>
<path fill="none" stroke="#000000" d="M548.9606,-90.4462C559.0855,-92.013 568.7816,-93.5133 577.4518,-94.855"/>
<polygon fill="#000000" stroke="#000000" points="577.0612,-98.3361 587.4788,-96.4066 578.1317,-91.4185 577.0612,-98.3361"/>
</g>
<!-- 4388628944*&#45;&gt;4388628944 -->
<g id="edge5" class="edge">
<title>4388628944*&#45;&gt;4388628944</title>
<path fill="none" stroke="#000000" d="M292.2288,-73.5C300.2799,-73.5 309.6518,-73.5 319.6946,-73.5"/>
<polygon fill="#000000" stroke="#000000" points="319.9369,-77.0001 329.9368,-73.5 319.9368,-70.0001 319.9369,-77.0001"/>
</g>
</g>
</svg>
